<svg width="261" height="34" viewBox="0 0 261 34" fill="none" xmlns="http://www.w3.org/2000/svg">
<path d="M7.03125 14.75V33.5H0V14.75C0 5.375 4.6875 0.6875 14.0625 0.6875C23.4375 0.6875 28.125 5.375 28.125 14.75V33.5H21.0938V14.75C21.0938 10.0625 18.75 7.71875 14.0625 7.71875C9.375 7.71875 7.03125 10.0625 7.03125 14.75ZM18.75 26.4688H9.375V19.4375H18.75V26.4688ZM45.7031 26.4688H59.7656V33.5H45.7031C36.3281 33.5 31.6406 28.8125 31.6406 19.4375V0.6875H38.6719V19.4375C38.6719 24.125 41.0156 26.4688 45.7031 26.4688ZM79.6875 24.125H72.6562V17.0938H79.6875C82.8125 17.0938 84.375 15.5312 84.375 12.4062C84.375 9.28125 82.8125 7.71875 79.6875 7.71875H70.3125V33.5H63.2812V0.6875H79.6875C87.5 0.6875 91.4062 4.59375 91.4062 12.4062C91.4062 20.2188 87.5 24.125 79.6875 24.125ZM113.672 20.6094H104.297V13.5781H113.672V20.6094ZM123.047 33.5H116.016V0.6875H123.047V33.5ZM101.953 33.5H94.9219V0.6875H101.953V33.5ZM133.594 14.75V33.5H126.562V14.75C126.562 5.375 131.25 0.6875 140.625 0.6875C150 0.6875 154.688 5.375 154.688 14.75V33.5H147.656V14.75C147.656 10.0625 145.312 7.71875 140.625 7.71875C135.938 7.71875 133.594 10.0625 133.594 14.75ZM145.312 26.4688H135.938V19.4375H145.312V26.4688ZM165.234 33.5H158.203V26.4688H165.234V33.5ZM196.875 14.75V33.5H189.844V14.75C189.844 10.0625 187.5 7.71875 182.812 7.71875C178.125 7.71875 175.781 10.0625 175.781 14.75V33.5H168.75V14.75C168.75 5.375 173.438 0.6875 182.812 0.6875C192.188 0.6875 196.875 5.375 196.875 14.75ZM214.453 0.6875H228.516V7.71875H214.453C210.172 7.71875 207.844 9.67188 207.469 13.5781H226.172V20.6094H207.422V33.5H200.391V14.75C200.391 5.375 205.078 0.6875 214.453 0.6875ZM249.609 7.71875V33.5H242.578V7.71875H232.031V0.6875H260.156V7.71875H249.609Z" fill="#FF7F11"/>
</svg>
